#N canvas 643 37 735 891 12;
#X obj 201 229 sig~;
#X obj 199 191 expr if($i1 != 0 \, 1 \, 0);
#X floatatom 150 216 5 0 0 0 - - - 0;
#X obj 197 271 else/adsr~ 250 500 0.75 1000;
#X obj 224 363 outlet~;
#X obj 135 87 inlet;
#X obj 129 138 unpack f f;
#X text 125 58 Get Velocity;
#X obj 301 87 inlet;
#X obj 382 90 inlet;
#X obj 472 89 inlet;
#X obj 567 90 inlet;
#X text 314 57 A;
#X text 395 58 D;
#X text 486 57 S;
#X text 582 58 R;
#X obj 398 349 vsl 18 80 0 1 0 0 ewtwet wefwert empty 0 -9 0 10 #dcdcdc #000000 #000000 0 1;
#X obj 398 322 else/sig2float~;
#X text 421 345 1;
#X connect 0 0 3 0;
#X connect 1 0 2 0;
#X connect 1 0 0 0;
#X connect 3 0 4 0;
#X connect 3 0 17 0;
#X connect 5 0 6 0;
#X connect 6 1 1 0;
#X connect 8 0 3 1;
#X connect 9 0 3 2;
#X connect 10 0 3 3;
#X connect 11 0 3 4;
#X connect 17 0 16 0;
