#N canvas 185 54 1195 518 12;
#X obj 343 387 *~;
#X obj 528 384 *~;
#X obj 741 379 *~;
#X obj 982 372 *~;
#X obj 1089 374 *~;
#X obj 152 50 inlet;
#X text 150 20 Choice;
#X msg 55 140 \$1 20;
#X msg 108 138 \$1 20;
#X obj 56 174 line~;
#X obj 108 174 line~;
#X msg 170 139 \$1 20;
#X obj 170 175 line~;
#X msg 228 141 \$1 20;
#X obj 228 177 line~;
#X msg 277 140 \$1 20;
#X obj 277 176 line~;
#X obj 688 474 outlet~;
#X obj 54 107 == 0;
#X obj 108 108 == 1;
#X obj 169 105 == 2;
#X obj 227 108 == 3;
#X obj 273 108 == 4;
#X obj 349 78 r~ \$0-osc_1_pre_fader;
#X obj 529 80 r~ \$0-osc_2_pre_fader;
#X obj 723 81 r~ \$0-osc_3_pre_fader;
#X obj 1005 82 r~ lfo_1;
#X obj 1103 81 r~ lfo_2;
#X connect 0 0 17 0;
#X connect 1 0 17 0;
#X connect 2 0 17 0;
#X connect 3 0 17 0;
#X connect 4 0 17 0;
#X connect 5 0 18 0;
#X connect 5 0 19 0;
#X connect 5 0 20 0;
#X connect 5 0 21 0;
#X connect 5 0 22 0;
#X connect 7 0 9 0;
#X connect 8 0 10 0;
#X connect 9 0 0 1;
#X connect 10 0 1 1;
#X connect 11 0 12 0;
#X connect 12 0 2 1;
#X connect 13 0 14 0;
#X connect 14 0 3 1;
#X connect 15 0 16 0;
#X connect 16 0 4 1;
#X connect 18 0 7 0;
#X connect 19 0 8 0;
#X connect 20 0 11 0;
#X connect 21 0 13 0;
#X connect 22 0 15 0;
#X connect 23 0 0 0;
#X connect 24 0 1 0;
#X connect 25 0 2 0;
#X connect 26 0 3 0;
#X connect 27 0 4 0;
