#N canvas 3 37 1470 891 12;
#X floatatom 333 129 5 0 0 0 - - - 0;
#X floatatom 389 128 5 0 0 0 - - - 0;
#X text 375 127 Y;
#X obj 273 226 else/pan4~, f 19;
#X obj 333 153 else/f2s~ 10;
#X obj 333 110 unpack;
#X obj 389 173 else/f2s~ 10;
#X obj 278 110 sig~ 1;
#X obj 340 53 inlet;
#X obj 181 509 *~;
#X obj 251 502 *~;
#X obj 541 482 triangle~;
#X obj 541 452 phasor~;
#X obj 542 517 *~;
#X obj 400 508 *~;
#X obj 401 455 square~;
#X floatatom 93 1090 5 0 0 0 - - - 0;
#X floatatom 256 1101 5 0 0 0 - - - 0;
#X floatatom 401 1102 5 0 0 0 - - - 0;
#X floatatom 571 1104 5 0 0 0 - - - 0;
#X obj 93 1060 snapshot~;
#X obj 252 1053 snapshot~;
#X obj 62 904 tgl 19 0 empty empty empty 0 -10 0 12 #fcfcfc #000000 #000000 0 1;
#X obj 390 1060 snapshot~;
#X obj 553 1072 snapshot~;
#X floatatom 643 276 5 0 0 0 - - - 0;
#X obj 62 972 bng 19 250 50 0 empty empty empty 0 -10 0 12 #fcfcfc #000000 #000000;
#X obj 129 479 sine~;
#X obj 93 972 s tempo;
#X obj 73 1022 r tempo;
#X obj 233 1014 r tempo;
#X obj 378 1006 r tempo;
#X obj 540 1026 r tempo;
#X text 167 904 DEBUG;
#X obj 251 474 saw~;
#X obj 202 252 s~ \$0-value_1;
#X obj 270 288 s~ \$0-value_2;
#X obj 325 259 s~ \$0-value_3;
#X obj 400 290 s~ \$0-value_4;
#X obj 166 453 r~ \$0-value_1;
#X obj 279 451 r~ \$0-value_2;
#X obj 439 485 r~ \$0-value_3;
#X obj 617 483 r~ \$0-value_4;
#X obj 602 1028 r~ \$0-value_4;
#X obj 435 1007 r~ \$0-value_3;
#X obj 289 1014 r~ \$0-value_2;
#X obj 131 1022 r~ \$0-value_1;
#X obj 733 71 inlet;
#X text 739 42 FM;
#X text 671 209 Frequency;
#X obj 976 68 inlet;
#X text 982 39 RM;
#X obj 784 71 inlet;
#X text 785 40 FM d;
#X obj 1055 69 inlet;
#X text 1044 38 Mod Source Choice;
#X obj 456 695 *~;
#X text 457 673 RM;
#X obj 1056 163 s~ \$0-mod_signal;
#X obj 487 646 r~ \$0-mod_signal;
#X obj 971 110 s \$0-RM;
#X obj 567 711 r \$0-RM;
#X obj 400 740 expr~ if($i3 \, $v2 \, $v1);
#X obj 512 821 outlet~;
#X obj 783 232 *~;
#X obj 782 188 r~ \$0-mod_signal;
#X obj 728 324 expr~ if($i3 \, $v2 \, $v1);
#X obj 895 295 r \$0-FM;
#X obj 729 102 s \$0-FM;
#X obj 763 274 +~;
#X obj 338 580 s~ \$0-output_pre_rm;
#X obj 317 644 r~ \$0-output_pre_rm;
#X obj 74 937 else/tempo 200;
#X obj 688 372 s~ \$0-frequency;
#X obj 541 420 r~ \$0-frequency;
#X obj 400 415 r~ \$0-frequency;
#X obj 248 417 r~ \$0-frequency;
#X obj 108 416 r~ \$0-frequency;
#X obj 35 57 inlet;
#X text 25 28 Midi info;
#X obj 29 108 unpack f f;
#X floatatom 24 135 5 0 0 0 - - - 0;
#X obj 28 161 mtof;
#X obj 22 190 s \$0-freq;
#X obj 112 150 s \$0-vel;
#X obj 682 235 r \$0-freq;
#X text 322 20 Waveform info;
#N canvas 0 37 1470 891 mod_source 0;
#X obj 343 387 *~;
#X obj 528 384 *~;
#X obj 741 379 *~;
#X obj 982 372 *~;
#X obj 1089 374 *~;
#X obj 152 50 inlet;
#X text 150 20 Choice;
#X msg 55 140 \$1 20;
#X msg 108 138 \$1 20;
#X obj 56 174 line~;
#X obj 108 174 line~;
#X msg 170 139 \$1 20;
#X obj 170 175 line~;
#X msg 228 141 \$1 20;
#X obj 228 177 line~;
#X msg 277 140 \$1 20;
#X obj 277 176 line~;
#X obj 688 474 outlet~;
#X obj 54 107 == 0;
#X obj 108 108 == 1;
#X obj 169 105 == 2;
#X obj 227 108 == 3;
#X obj 273 108 == 4;
#X obj 1005 82 r~ lfo_1;
#X obj 1103 81 r~ lfo_2;
#X obj 349 78 inlet~;
#X obj 529 80 inlet~;
#X obj 723 81 inlet~;
#X connect 0 0 17 0;
#X connect 1 0 17 0;
#X connect 2 0 17 0;
#X connect 3 0 17 0;
#X connect 4 0 17 0;
#X connect 5 0 18 0;
#X connect 5 0 19 0;
#X connect 5 0 20 0;
#X connect 5 0 21 0;
#X connect 5 0 22 0;
#X connect 7 0 9 0;
#X connect 8 0 10 0;
#X connect 9 0 0 1;
#X connect 10 0 1 1;
#X connect 11 0 12 0;
#X connect 12 0 2 1;
#X connect 13 0 14 0;
#X connect 14 0 3 1;
#X connect 15 0 16 0;
#X connect 16 0 4 1;
#X connect 18 0 7 0;
#X connect 19 0 8 0;
#X connect 20 0 11 0;
#X connect 21 0 13 0;
#X connect 22 0 15 0;
#X connect 23 0 3 0;
#X connect 24 0 4 0;
#X connect 25 0 0 0;
#X connect 26 0 1 0;
#X connect 27 0 2 0;
#X restore 1056 111 pd mod_source;
#X obj 1203 59 inlet;
#X text 1206 37 Fader;
#X obj 1201 114 s \$0-fader;
#X obj 513 784 *~;
#X obj 587 768 r \$0-fader;
#X obj 383 817 outlet~;
#X floatatom 850 121 5 0 0 0 - - - 0;
#X obj 1641 5, f 37;
#X text 1284 14 Osc 1 (pre-fader);
#X text 1379 34 Osc 2 (pre-fader);
#X text 1469 15 Osc 3 (pre-fader);
#X obj 1318 58 inlet~;
#X obj 1419 60 inlet~;
#X obj 1506 59 inlet~;
#X connect 0 0 4 0;
#X connect 1 0 6 0;
#X connect 3 0 35 0;
#X connect 3 1 36 0;
#X connect 3 2 37 0;
#X connect 3 3 38 0;
#X connect 4 0 3 1;
#X connect 5 0 0 0;
#X connect 5 1 1 0;
#X connect 6 0 3 2;
#X connect 7 0 3 0;
#X connect 8 0 5 0;
#X connect 9 0 70 0;
#X connect 10 0 70 0;
#X connect 11 0 13 0;
#X connect 12 0 11 0;
#X connect 13 0 70 0;
#X connect 14 0 70 0;
#X connect 15 0 14 0;
#X connect 20 0 16 0;
#X connect 21 0 17 0;
#X connect 22 0 72 0;
#X connect 23 0 18 0;
#X connect 24 0 19 0;
#X connect 27 0 9 0;
#X connect 29 0 20 0;
#X connect 30 0 21 0;
#X connect 31 0 23 0;
#X connect 32 0 24 0;
#X connect 34 0 10 0;
#X connect 39 0 9 1;
#X connect 40 0 10 1;
#X connect 41 0 14 1;
#X connect 42 0 13 1;
#X connect 43 0 24 0;
#X connect 44 0 23 0;
#X connect 45 0 21 0;
#X connect 46 0 20 0;
#X connect 47 0 68 0;
#X connect 50 0 60 0;
#X connect 52 0 64 1;
#X connect 52 0 94 0;
#X connect 54 0 87 0;
#X connect 56 0 62 1;
#X connect 59 0 56 1;
#X connect 61 0 62 2;
#X connect 62 0 91 0;
#X connect 62 0 93 0;
#X connect 64 0 69 1;
#X connect 65 0 64 0;
#X connect 66 0 73 0;
#X connect 67 0 66 2;
#X connect 69 0 66 1;
#X connect 71 0 56 0;
#X connect 71 0 62 0;
#X connect 72 0 26 0;
#X connect 72 0 28 0;
#X connect 74 0 12 0;
#X connect 75 0 15 0;
#X connect 76 0 34 0;
#X connect 77 0 27 0;
#X connect 78 0 80 0;
#X connect 80 0 81 0;
#X connect 80 1 84 0;
#X connect 81 0 82 0;
#X connect 82 0 83 0;
#X connect 85 0 25 0;
#X connect 85 0 66 0;
#X connect 85 0 69 0;
#X connect 87 0 58 0;
#X connect 88 0 90 0;
#X connect 91 0 63 0;
#X connect 92 0 91 1;
#X connect 99 0 87 1;
#X connect 100 0 87 2;
#X connect 101 0 87 3;
