#N canvas 0 37 1470 891 12;
#X declare -path ./abstractions;
#X obj 20 83 inlet;
#X text 459 89 Osc 1;
#X text 1061 88 Osc 2;
#X text 1588 54 Osc 3;
#X obj -18 -10 declare -path ./abstractions;
#X text 18 46 Midi Info;
#X obj 14 139 s \$0-midi_info;
#X obj 304 316 s~ \$0-osc_1_pre_fader;
#X obj 481 318 s~ \$0-osc_1;
#X obj 743 448 r~ \$0-osc_1;
#X obj 833 448 r~ \$0-osc_2;
#X obj 926 449 r~ \$0-osc_3;
#X obj 675 828 outlet~;
#X obj 588 665 adsr, f 41;
#X obj 529 624 r \$0-midi_info;
#X obj 651 624 r attack;
#X obj 729 624 r decay;
#X obj 799 624 r sustain;
#X obj 877 625 r release;
#X obj 680 750 *~;
#X obj 740 721 r~ \$0-pre_adsr;
#X obj 817 544 s~ \$0-pre_adsr;
#X obj 878 307 s~ \$0-osc_2_pre_fader;
#X obj 1415 303 s~ \$0-osc_3_pre_fader;
#X obj 1060 307 s~ \$0-osc_2;
#X obj 1593 304 s~ \$0-osc_3;
#X obj 271 173 r osc_1_waveform;
#X obj 339 144 r osc_1_fm;
#X obj 402 171 r osc_1_fm_d;
#X obj 445 142 r osc_1_rm;
#X obj 506 171 r osc_1_choice;
#X obj 563 141 r osc_1_fader;
#X obj 832 187 r osc_2_waveform;
#X obj 900 158 r osc_2_fm;
#X obj 963 185 r osc_2_fm_d;
#X obj 1006 156 r osc_2_rm;
#X obj 1067 185 r osc_2_choice;
#X obj 1124 155 r osc_2_fader;
#X obj 1654 112 r osc_3_fader;
#X obj 1597 142 r osc_3_choice;
#X obj 1536 113 r osc_3_rm;
#X obj 1493 142 r osc_3_fm_d;
#X obj 1430 115 r osc_3_fm;
#X obj 1362 144 r osc_3_waveform;
#X obj 826 491 +~;
#X obj 332 235 my_osc, f 26;
#X obj 893 249 my_osc, f 26;
#X obj 1423 206 my_osc, f 26;
#X obj 539 226 r~ \$0-osc_1_pre_fader;
#X obj 540 248 r~ \$0-osc_2_pre_fader;
#X obj 541 271 r~ \$0-osc_3_pre_fader;
#X obj 1096 211 r~ \$0-osc_1_pre_fader;
#X obj 1097 233 r~ \$0-osc_2_pre_fader;
#X obj 1098 256 r~ \$0-osc_3_pre_fader;
#X obj 1633 172 r~ \$0-osc_1_pre_fader;
#X obj 1634 194 r~ \$0-osc_2_pre_fader;
#X obj 1635 217 r~ \$0-osc_3_pre_fader;
#X obj 865 513 +~;
#X obj 817 85 +;
#X obj 845 20 r osc_2_semitone_detune;
#X obj 9 187 r \$0-midi_info;
#X obj 14 246 s \$0-midi_note;
#X obj 54 274 s \$0-midi_vel;
#X obj 730 52 r \$0-midi_note;
#X obj 875 79 r \$0-midi_vel;
#X obj 220 94 +;
#X obj 138 53 r \$0-midi_note;
#X obj 278 88 r \$0-midi_vel;
#X obj 255 23 r osc_1_semitone_detune;
#X obj 1309 89 +;
#X obj 1222 52 r \$0-midi_note;
#X obj 1367 84 r \$0-midi_vel;
#X obj 1336 14 r osc_3_semitone_detune;
#X obj 216 142 pack f f;
#X obj 21 211 unpack f f;
#X obj 814 111 pack f f;
#X obj 1306 115 pack f f;
#X obj 259 54 t b f;
#X obj 855 48 t b f;
#X obj 1338 53 t b f;
#X connect 0 0 6 0;
#X connect 9 0 44 0;
#X connect 10 0 44 1;
#X connect 11 0 57 1;
#X connect 13 0 19 0;
#X connect 14 0 13 0;
#X connect 15 0 13 1;
#X connect 16 0 13 2;
#X connect 17 0 13 3;
#X connect 18 0 13 4;
#X connect 19 0 12 0;
#X connect 20 0 19 1;
#X connect 26 0 45 1;
#X connect 27 0 45 2;
#X connect 28 0 45 3;
#X connect 29 0 45 4;
#X connect 30 0 45 5;
#X connect 31 0 45 6;
#X connect 32 0 46 1;
#X connect 33 0 46 2;
#X connect 34 0 46 3;
#X connect 35 0 46 4;
#X connect 36 0 46 5;
#X connect 37 0 46 6;
#X connect 38 0 47 6;
#X connect 39 0 47 5;
#X connect 40 0 47 4;
#X connect 41 0 47 3;
#X connect 42 0 47 2;
#X connect 43 0 47 1;
#X connect 44 0 57 0;
#X connect 45 0 7 0;
#X connect 45 1 8 0;
#X connect 46 0 22 0;
#X connect 46 1 24 0;
#X connect 47 0 23 0;
#X connect 47 1 25 0;
#X connect 48 0 45 7;
#X connect 49 0 45 8;
#X connect 50 0 45 9;
#X connect 51 0 46 7;
#X connect 52 0 46 8;
#X connect 53 0 46 9;
#X connect 54 0 47 7;
#X connect 55 0 47 8;
#X connect 56 0 47 9;
#X connect 57 0 21 0;
#X connect 58 0 75 0;
#X connect 59 0 78 0;
#X connect 60 0 74 0;
#X connect 63 0 58 0;
#X connect 64 0 75 1;
#X connect 65 0 73 0;
#X connect 66 0 65 0;
#X connect 67 0 73 1;
#X connect 68 0 77 0;
#X connect 69 0 76 0;
#X connect 70 0 69 0;
#X connect 71 0 76 1;
#X connect 72 0 79 0;
#X connect 73 0 45 0;
#X connect 74 0 61 0;
#X connect 74 1 62 0;
#X connect 75 0 46 0;
#X connect 76 0 47 0;
#X connect 77 0 65 0;
#X connect 77 1 65 1;
#X connect 78 0 58 0;
#X connect 78 1 58 1;
#X connect 79 0 69 0;
#X connect 79 1 69 1;
